<svg width="231" height="193" viewBox="0 0 231 193" fill="none" xmlns="http://www.w3.org/2000/svg">
<rect x="3" y="7" width="225" height="183.366" rx="32" fill="#1E1E1E"/>
<path d="M3.00012 36C3.00012 48.4943 3.47844 60.8465 3.47844 74.134M3.47844 74.134C3.47844 87.4216 4.84686 96.4501 3.47835 112.708C2.10984 128.966 3.00003 151.162 3.00003 160H4.00003C4.00003 151.162 3.25221 124.435 3.622 120.691C4.59309 110.858 3.47884 74.7453 3.47844 74.134Z" stroke="black" stroke-width="3" stroke-miterlimit="10" stroke-linecap="round" stroke-linejoin="round"/>
<path d="M197 190C188.736 190 183.619 190.332 155.388 190M155.388 190C155.388 190 125.692 190.366 116.017 190.366C106.341 190.366 103.605 189.899 83.1791 190C67.9082 190.075 48.0507 189.966 33 190L33.0001 191C78.2836 191 110.316 190 155.388 190Z" stroke="black" stroke-width="3" stroke-miterlimit="10" stroke-linecap="round" stroke-linejoin="round"/>
<path d="M229.5 83.3611C229.349 89.4579 228.342 112.027 228.5 125.556C228.658 139.084 228 151.162 228 160H229C229 160 228.967 138.492 228.967 129C228.967 125.642 228.914 112.771 229 107.228C229.158 97.1007 229.5 92.7425 229.5 83.3611ZM229.5 83.3611C229.5 76.518 229.439 76.5008 229.5 68.7222C229.568 59.9999 228.967 44.6111 228 36" stroke="black" stroke-width="3" stroke-miterlimit="10" stroke-linecap="round" stroke-linejoin="round"/>
<path d="M33 7C41.9012 7 58.5351 7.5 85.6269 7.5C95.6593 7.5 106.477 6.77632 116.084 6.68997C132.42 6.54314 146.006 7 151.716 7C160.785 7 178.642 6.99999 197 6.99999" stroke="black" stroke-width="3" stroke-miterlimit="10" stroke-linecap="round" stroke-linejoin="round"/>
<path d="M228 159C228 181 215 190 197 190C226 190 229 169.263 229 159L228 159Z" stroke="black" stroke-width="3" stroke-linecap="round" stroke-linejoin="round"/>
<path d="M3 36C3 25.737 9.00002 7 33 7" stroke="black" stroke-width="3" stroke-linecap="round" stroke-linejoin="round"/>
<path d="M4 160C4 179.697 16 190 33 190L33 191C9.00002 191 3 173.342 3 160L4 160Z" stroke="black" stroke-width="3" stroke-linecap="round" stroke-linejoin="round"/>
<path d="M197 7.00006C213.682 7.00006 225.043 21.2125 228 36.0001" stroke="black" stroke-width="3" stroke-linecap="round" stroke-linejoin="round"/>
<rect x="2" y="2" width="225" height="183.366" rx="32" fill="#FC7D07"/>
<path d="M2.00012 31C2.00012 43.4943 2.47844 55.8465 2.47844 69.134M2.47844 69.134C2.47844 82.4216 3.84686 91.4501 2.47835 107.708C1.10984 123.966 2.00003 146.162 2.00003 155H3.00003C3.00003 146.162 2.25221 119.435 2.622 115.691C3.59309 105.858 2.47884 69.7453 2.47844 69.134Z" stroke="black" stroke-width="3" stroke-miterlimit="10" stroke-linecap="round" stroke-linejoin="round"/>
<path d="M196 185C187.736 185 182.619 185.332 154.388 185M154.388 185C154.388 185 124.692 185.366 115.017 185.366C105.341 185.366 102.605 184.899 82.1791 185C66.9082 185.075 47.0507 184.966 32 185L32.0001 186C77.2836 186 109.316 185 154.388 185Z" stroke="black" stroke-width="3" stroke-miterlimit="10" stroke-linecap="round" stroke-linejoin="round"/>
<path d="M228.5 78.3611C228.349 84.4579 227.342 107.027 227.5 120.556C227.658 134.084 227 146.162 227 155H228C228 155 227.967 133.492 227.967 124C227.967 120.642 227.914 107.771 228 102.228C228.158 92.1007 228.5 87.7425 228.5 78.3611ZM228.5 78.3611C228.5 71.518 228.439 71.5008 228.5 63.7222C228.568 54.9999 227.967 39.6111 227 31" stroke="black" stroke-width="3" stroke-miterlimit="10" stroke-linecap="round" stroke-linejoin="round"/>
<path d="M32 2C40.9012 2 57.5351 2.5 84.6269 2.5C94.6593 2.5 105.477 1.77632 115.084 1.68997C131.42 1.54314 145.006 2 150.716 2C159.785 2 177.642 1.99999 196 1.99999" stroke="black" stroke-width="3" stroke-miterlimit="10" stroke-linecap="round" stroke-linejoin="round"/>
<path d="M227 154C227 176 214 185 196 185C225 185 228 164.263 228 154L227 154Z" stroke="black" stroke-width="3" stroke-linecap="round" stroke-linejoin="round"/>
<path d="M2 31C2 20.737 8.00002 2 32 2" stroke="black" stroke-width="3" stroke-linecap="round" stroke-linejoin="round"/>
<path d="M3 155C3 174.697 15 185 32 185L32 186C8.00002 186 2 168.342 2 155L3 155Z" stroke="black" stroke-width="3" stroke-linecap="round" stroke-linejoin="round"/>
<path d="M196 2.00006C212.682 2.00006 224.043 16.2125 227 31.0001" stroke="black" stroke-width="3" stroke-linecap="round" stroke-linejoin="round"/>
</svg>
