<svg width="716" height="5" viewBox="0 0 716 5" fill="none" xmlns="http://www.w3.org/2000/svg">
<path d="M2 2.35443C24.2544 2.35443 24.2544 2.93671 46.496 2.93671C68.7504 2.93671 68.7504 2.71519 90.9921 2.71519C113.246 2.71519 113.246 2.17722 135.488 2.17722C157.742 2.17722 157.742 2.72785 179.984 2.72785C202.239 2.72785 202.239 3 224.48 3C246.735 3 246.735 2.12658 268.976 2.12658C291.231 2.12658 291.231 2 313.472 2C335.727 2 335.727 2.70253 357.968 2.70253C380.21 2.70253 380.21 2.13291 402.464 2.13291C424.719 2.13291 424.719 2.51266 446.96 2.51266C469.215 2.51266 469.215 2.41772 491.456 2.41772C513.711 2.41772 513.711 2.13291 535.965 2.13291C558.219 2.13291 558.219 2.49367 580.474 2.49367C602.728 2.49367 602.728 2.13291 624.983 2.13291C647.237 2.13291 647.237 2.79747 669.491 2.79747C691.746 2.79747 691.746 2.90506 714 2.90506" stroke="black" stroke-width="3" stroke-miterlimit="10" stroke-linecap="round" stroke-linejoin="round"/>
</svg>
