<svg width="426" height="76" viewBox="0 0 426 76" fill="none" xmlns="http://www.w3.org/2000/svg">
<rect x="3" y="6" width="393" height="62" rx="31" fill="white"/>
<path d="M2.99977 35C2.99977 35.2485 2.01686 35.1978 2.01686 35.4621M2.01686 35.4621C2.01686 35.7264 2.09931 36.2081 2.55011 36.5318C3.00092 36.8556 2.99977 37 2.99977 37H3.99977C3.90987 36.9696 3.31223 36.2424 3.31223 36.1669C3.31223 36.0913 2.55011 35.7068 2.01686 35.4621Z" stroke="black" stroke-width="3" stroke-miterlimit="10" stroke-linecap="round" stroke-linejoin="round"/>
<path d="M396.5 34L395 34C395 52.4823 387.5 66.5 364 67L364 68C393 68 396.5 44.263 396.5 34Z" stroke="black" stroke-width="3" stroke-linecap="round" stroke-linejoin="round"/>
<path d="M3 35C3 24.737 9.00002 6 33 6" stroke="black" stroke-width="3" stroke-linecap="round" stroke-linejoin="round"/>
<path d="M4 37C4 56.697 16 67 33 67L33 68C9.00002 68 3 50.3419 3 37L4 37Z" stroke="black" stroke-width="3" stroke-linecap="round" stroke-linejoin="round"/>
<path d="M365 6C381.682 6 396 22 396 37" stroke="black" stroke-width="3" stroke-linecap="round" stroke-linejoin="round"/>
<path d="M73.9485 67.5C63.0491 67.5 52.8 67 33 67V68C65.4173 68 63.3756 68.5 72.2423 68.5C102.596 68.5 227.341 68.1002 236.315 68.1002M73.9485 67.5C73.9485 67.5 220.187 68.9655 243.369 68.9655C266.55 68.9655 261.067 69.0046 310.006 68.9655C346.594 68.9363 355.469 68 364 68V67C343.526 67 338.752 68.1002 291.713 68.1002C275.505 68.1002 256.545 68.1002 236.315 68.1002M73.9485 67.5C118.003 67.5 181.331 68.1002 236.315 68.1002" stroke="black" stroke-width="3" stroke-miterlimit="10" stroke-linecap="round" stroke-linejoin="round"/>
<path d="M395.813 35.4827C395.813 35.0389 397 34.7598 397 34.4696C397 34.1795 396.5 34.0314 396.5 34H395C395 34.322 395.5 34.322 395.5 34.4712C395.5 34.8847 395.719 35.2963 395.813 35.4827ZM395.813 35.4827C395.813 35.6918 395.179 36.1191 395.216 36.3569C395.258 36.6235 396 36.7426 396 37" stroke="black" stroke-width="3" stroke-miterlimit="10" stroke-linecap="round" stroke-linejoin="round"/>
<path d="M33 6C51.1576 6 66.9998 6.27092 76.3405 6.27092M76.3405 6.27092C85.6812 6.27092 127.154 6.03685 144.714 6.03684M76.3405 6.27092C76.3405 6.27092 96.5963 6.99959 108.472 6.99959C120.348 6.99959 144.714 6.03684 144.714 6.03684M365 6C346.416 6 356.711 6.27092 338.252 6.27092C327.73 6.27092 314.858 5.8808 296.406 6.03684M194.143 6.99959C206.913 6.97705 273.661 6.22918 296.406 6.03684M194.143 6.99959C180.936 7.02291 162.274 6.03684 144.714 6.03684M194.143 6.99959C194.143 6.99959 226.164 6.99959 244.098 6.99959M296.406 6.03684C296.406 6.03684 262.032 6.99959 244.098 6.99959M144.714 6.03684C155.477 6.03684 180.432 6.03684 194.143 6.03684C207.854 6.03684 233.16 6.67868 244.098 6.99959" stroke="black" stroke-width="3" stroke-miterlimit="10" stroke-linecap="round" stroke-linejoin="round"/>
<g filter="url(#filter0_d_0_1)">
<path d="M284.014 68.6068L284.64 4.22158C284.649 3.36593 285.37 2.69059 286.224 2.73852L298.636 3.43486H342.545L382.273 4.54075L420.429 2.72528C421.284 2.68457 422 3.36716 422 4.22358V69.9651C422 70.4899 421.726 70.9765 421.277 71.2483L420.422 71.7659C420.169 71.9186 419.878 71.9935 419.583 71.9813L374.071 70.0968L327.562 70.8105L285.49 70.1212C284.665 70.1077 284.006 69.4313 284.014 68.6068Z" fill="#FFCC00"/>
</g>
<path d="M281.5 2.82336C304.25 2.82336 307.696 3.0079 330.434 3.0079C353.183 3.0079 354.566 3.25987 377.316 3.25987C400.065 3.25987 400.75 2.82336 423.5 2.82336" stroke="black" stroke-width="3" stroke-miterlimit="10" stroke-linecap="round" stroke-linejoin="round"/>
<path d="M284 71.4016C307.002 71.4016 307.002 71.3071 329.992 71.3071C352.994 71.3071 352.994 70.9922 375.996 70.9922C398.998 70.9922 398.998 72.0001 422 72.0001" stroke="black" stroke-width="3" stroke-miterlimit="10" stroke-linecap="round" stroke-linejoin="round"/>
<path d="M422.831 71.6437C423.065 71.3197 422.286 2.23999 422.286 2.23999C422.286 2.23999 421.895 70.9918 422.027 71.6437C422.159 72.2956 422.643 71.9029 422.831 71.6437Z" stroke="black" stroke-width="3" stroke-miterlimit="10" stroke-linecap="round" stroke-linejoin="round"/>
<path d="M284.05 71.4037C283.783 71.0797 284.67 2 284.67 2C284.67 2 285.115 70.7518 284.965 71.4037C284.815 72.0556 284.264 71.6629 284.05 71.4037Z" stroke="black" stroke-width="3" stroke-miterlimit="10" stroke-linecap="round" stroke-linejoin="round"/>
<path d="M325.145 28.375C326.219 28.375 327.142 28.4971 327.913 28.7412C328.694 28.9854 329.349 29.3027 329.876 29.6934C330.413 30.084 330.843 30.5283 331.165 31.0264C331.487 31.5146 331.731 32.0127 331.897 32.5205C332.073 33.0283 332.186 33.5166 332.234 33.9854C332.293 34.4541 332.322 34.8594 332.322 35.2012C332.322 35.3477 332.308 35.5283 332.278 35.7432C332.259 35.9482 332.176 36.1484 332.029 36.3438C331.883 36.5391 331.648 36.7051 331.326 36.8418C331.014 36.9785 330.564 37.0469 329.979 37.0469C329.783 37.0469 329.539 37.0371 329.246 37.0176C328.953 36.9883 328.67 36.9248 328.396 36.8271C328.123 36.7197 327.889 36.5732 327.693 36.3877C327.498 36.1924 327.4 35.9238 327.4 35.582C327.4 35.0547 327.366 34.5811 327.298 34.1611C327.239 33.7412 327.127 33.3848 326.961 33.0918C326.795 32.7988 326.565 32.5742 326.272 32.418C325.979 32.2617 325.604 32.1836 325.145 32.1836C324.666 32.1836 324.295 32.2861 324.031 32.4912C323.777 32.6865 323.592 32.9014 323.475 33.1357C323.338 33.4189 323.26 33.7363 323.24 34.0879V43.375C323.26 43.8047 323.338 44.1807 323.475 44.5029C323.592 44.7861 323.777 45.0449 324.031 45.2793C324.295 45.5137 324.666 45.6309 325.145 45.6309C325.604 45.6309 325.979 45.5381 326.272 45.3525C326.565 45.1572 326.795 44.8984 326.961 44.5762C327.127 44.2539 327.239 43.8828 327.298 43.4629C327.366 43.043 327.4 42.6035 327.4 42.1445C327.4 41.998 327.425 41.8467 327.474 41.6904C327.522 41.5342 327.635 41.3926 327.811 41.2656C327.986 41.1289 328.245 41.0166 328.587 40.9287C328.929 40.8408 329.393 40.7969 329.979 40.7969C330.564 40.7969 331.014 40.8652 331.326 41.002C331.648 41.1289 331.883 41.2803 332.029 41.4561C332.176 41.6221 332.259 41.7881 332.278 41.9541C332.308 42.1104 332.322 42.2129 332.322 42.2617C332.322 43.3359 332.142 44.2979 331.78 45.1475C331.419 45.9873 330.906 46.7002 330.242 47.2861C329.588 47.8721 328.802 48.3213 327.884 48.6338C326.976 48.9365 325.975 49.0879 324.881 49.0879C324.705 49.0879 324.417 49.0732 324.017 49.0439C323.626 49.0146 323.187 48.9365 322.698 48.8096C322.21 48.6826 321.707 48.4922 321.189 48.2383C320.672 47.9844 320.198 47.6328 319.769 47.1836C319.349 46.7246 319.002 46.1582 318.729 45.4844C318.455 44.8008 318.318 43.9707 318.318 42.9941V34.8203C318.318 34.0195 318.416 33.3115 318.611 32.6963C318.807 32.0811 319.061 31.5488 319.373 31.0996C319.695 30.6406 320.062 30.2598 320.472 29.957C320.882 29.6445 321.302 29.3857 321.731 29.1807C322.728 28.7119 323.865 28.4434 325.145 28.375ZM335.311 31.7441C335.311 31.334 335.33 30.9336 335.369 30.543C335.418 30.1523 335.521 29.8057 335.677 29.5029C335.833 29.2002 336.058 28.9561 336.351 28.7705C336.644 28.585 337.039 28.4922 337.537 28.4922C338.045 28.4922 338.445 28.585 338.738 28.7705C339.031 28.9561 339.251 29.2002 339.397 29.5029C339.554 29.8057 339.651 30.1523 339.69 30.543C339.739 30.9336 339.764 31.334 339.764 31.7441V45.7188C339.764 46.1289 339.739 46.5342 339.69 46.9346C339.651 47.3252 339.554 47.6768 339.397 47.9893C339.251 48.292 339.031 48.5361 338.738 48.7217C338.445 48.9072 338.045 49 337.537 49C337.039 49 336.644 48.9072 336.351 48.7217C336.058 48.5361 335.833 48.292 335.677 47.9893C335.521 47.6768 335.418 47.3252 335.369 46.9346C335.33 46.5342 335.311 46.1289 335.311 45.7188V31.7441ZM355.203 45.6895C355.203 46.0996 355.188 46.5049 355.159 46.9053C355.13 47.2959 355.042 47.6475 354.896 47.96C354.749 48.2725 354.529 48.5264 354.236 48.7217C353.943 48.9072 353.533 49 353.006 49C352.469 49 352.049 48.9121 351.746 48.7363C351.443 48.5508 351.219 48.3311 351.072 48.0771C350.926 47.8135 350.833 47.54 350.794 47.2568C350.765 46.9736 350.75 46.7344 350.75 46.5391C350.662 46.8223 350.535 47.1104 350.369 47.4033C350.213 47.6963 350.008 47.96 349.754 48.1943C349.5 48.4287 349.192 48.624 348.831 48.7803C348.479 48.9268 348.064 49 347.586 49C347.049 49 346.512 48.9121 345.975 48.7363C345.438 48.5605 344.954 48.2676 344.524 47.8574C344.095 47.4473 343.743 46.915 343.47 46.2607C343.206 45.5967 343.074 44.7812 343.074 43.8145V39.5664C343.074 38.5898 343.206 37.7744 343.47 37.1201C343.743 36.4561 344.095 35.9238 344.524 35.5234C344.954 35.1133 345.438 34.8203 345.975 34.6445C346.512 34.4688 347.049 34.3809 347.586 34.3809C348.064 34.3809 348.479 34.4541 348.831 34.6006C349.192 34.7471 349.5 34.9375 349.754 35.1719C350.008 35.4062 350.213 35.6699 350.369 35.9629C350.535 36.2559 350.662 36.5488 350.75 36.8418C350.75 36.3535 350.818 35.9482 350.955 35.626C351.092 35.3037 351.268 35.0498 351.482 34.8643C351.697 34.6689 351.937 34.5371 352.2 34.4688C352.474 34.3906 352.742 34.3516 353.006 34.3516C353.494 34.3516 353.885 34.4492 354.178 34.6445C354.471 34.8301 354.69 35.0791 354.837 35.3916C354.993 35.6943 355.091 36.0508 355.13 36.4609C355.179 36.8613 355.203 37.2715 355.203 37.6914V45.6895ZM347.586 43.4336C347.586 43.6973 347.596 43.9561 347.615 44.21C347.635 44.4639 347.688 44.6934 347.776 44.8984C347.864 45.1035 347.991 45.2695 348.157 45.3965C348.333 45.5137 348.572 45.5723 348.875 45.5723C349.256 45.5723 349.563 45.4893 349.798 45.3232C350.042 45.1475 350.232 44.8838 350.369 44.5322C350.506 44.1709 350.599 43.7217 350.647 43.1846C350.706 42.6377 350.74 41.9883 350.75 41.2363C350.75 40.9336 350.721 40.5869 350.662 40.1963C350.613 39.7959 350.521 39.4199 350.384 39.0684C350.247 38.7168 350.057 38.4189 349.812 38.1748C349.568 37.9307 349.256 37.8086 348.875 37.8086C348.572 37.8086 348.333 37.8721 348.157 37.999C347.991 38.1162 347.864 38.2725 347.776 38.4678C347.688 38.6631 347.635 38.8877 347.615 39.1416C347.596 39.3857 347.586 39.6348 347.586 39.8887V43.4336ZM359.041 37.6328C359.041 37.2227 359.061 36.8223 359.1 36.4316C359.148 36.041 359.251 35.6943 359.407 35.3916C359.563 35.0791 359.788 34.8301 360.081 34.6445C360.374 34.4492 360.77 34.3516 361.268 34.3516C361.766 34.3516 362.161 34.4492 362.454 34.6445C362.747 34.8301 362.972 35.0791 363.128 35.3916C363.284 35.6943 363.382 36.041 363.421 36.4316C363.47 36.8223 363.494 37.2227 363.494 37.6328V45.7188C363.494 46.1289 363.47 46.5342 363.421 46.9346C363.382 47.3252 363.284 47.6768 363.128 47.9893C362.972 48.292 362.747 48.5361 362.454 48.7217C362.161 48.9072 361.766 49 361.268 49C360.77 49 360.374 48.9072 360.081 48.7217C359.788 48.5361 359.563 48.292 359.407 47.9893C359.251 47.6768 359.148 47.3252 359.1 46.9346C359.061 46.5342 359.041 46.1289 359.041 45.7188V37.6328ZM363.523 30.7188C363.523 31.4707 363.328 32.0322 362.938 32.4033C362.547 32.7646 362 32.9453 361.297 32.9453C360.594 32.9453 360.047 32.7646 359.656 32.4033C359.266 32.0322 359.07 31.4707 359.07 30.7188C359.07 29.9375 359.266 29.3711 359.656 29.0195C360.047 28.668 360.594 28.4922 361.297 28.4922C362.049 28.4922 362.605 28.668 362.967 29.0195C363.338 29.3711 363.523 29.9375 363.523 30.7188ZM377.791 49C377.293 49 376.897 48.9072 376.604 48.7217C376.312 48.5264 376.087 48.2725 375.931 47.96C375.774 47.6475 375.672 47.2959 375.623 46.9053C375.584 46.5049 375.564 46.0996 375.564 45.6895V39.8887C375.564 39.625 375.55 39.3662 375.521 39.1123C375.501 38.8584 375.447 38.6338 375.359 38.4385C375.271 38.2432 375.14 38.0869 374.964 37.9697C374.798 37.8428 374.568 37.7793 374.275 37.7793C373.885 37.7793 373.567 37.9111 373.323 38.1748C373.079 38.4385 372.884 38.7998 372.737 39.2588C372.601 39.708 372.503 40.2402 372.444 40.8555C372.396 41.4707 372.371 42.1348 372.371 42.8477V45.6895C372.371 46.0996 372.347 46.5049 372.298 46.9053C372.259 47.2959 372.161 47.6475 372.005 47.96C371.858 48.2725 371.639 48.5264 371.346 48.7217C371.053 48.9072 370.652 49 370.145 49C369.637 49 369.236 48.9072 368.943 48.7217C368.65 48.5264 368.426 48.2725 368.27 47.96C368.123 47.6475 368.025 47.2959 367.977 46.9053C367.938 46.5049 367.918 46.0996 367.918 45.6895V37.6621C367.918 37.252 367.933 36.8516 367.962 36.4609C368.001 36.0605 368.094 35.7041 368.24 35.3916C368.387 35.0791 368.606 34.8301 368.899 34.6445C369.202 34.4492 369.617 34.3516 370.145 34.3516C370.682 34.3516 371.097 34.4443 371.39 34.6299C371.692 34.8057 371.917 35.0254 372.063 35.2891C372.21 35.543 372.298 35.8115 372.327 36.0947C372.356 36.3779 372.371 36.6172 372.371 36.8125C372.459 36.5293 372.596 36.2412 372.781 35.9482C372.977 35.6553 373.221 35.3916 373.514 35.1572C373.807 34.9229 374.144 34.7324 374.524 34.5859C374.905 34.4297 375.33 34.3516 375.799 34.3516C376.443 34.3516 377.068 34.5078 377.674 34.8203C378.279 35.1328 378.797 35.6406 379.227 36.3438C379.373 36.0117 379.588 35.7236 379.871 35.4795C380.154 35.2256 380.477 35.0156 380.838 34.8496C381.199 34.6836 381.585 34.5615 381.995 34.4834C382.405 34.3955 382.811 34.3516 383.211 34.3516C383.748 34.3516 384.285 34.4395 384.822 34.6152C385.359 34.791 385.843 35.084 386.272 35.4941C386.702 35.9043 387.049 36.4414 387.312 37.1055C387.586 37.7598 387.723 38.5703 387.723 39.5371V45.6895C387.723 46.0996 387.698 46.5049 387.649 46.9053C387.601 47.2959 387.498 47.6475 387.342 47.96C387.186 48.2725 386.956 48.5264 386.653 48.7217C386.36 48.9072 385.965 49 385.467 49C384.959 49 384.554 48.9072 384.251 48.7217C383.958 48.5264 383.733 48.2725 383.577 47.96C383.421 47.6475 383.318 47.2959 383.27 46.9053C383.23 46.5049 383.211 46.0996 383.211 45.6895V39.8887C383.211 39.625 383.196 39.3662 383.167 39.1123C383.138 38.8584 383.079 38.6338 382.991 38.4385C382.903 38.2432 382.771 38.0869 382.596 37.9697C382.42 37.8428 382.186 37.7793 381.893 37.7793C381.58 37.7793 381.312 37.877 381.087 38.0723C380.872 38.2676 380.691 38.5361 380.545 38.8779C380.398 39.2197 380.286 39.6299 380.208 40.1084C380.13 40.5771 380.076 41.0898 380.047 41.6465V45.6895C380.047 46.0996 380.022 46.5049 379.974 46.9053C379.935 47.2959 379.837 47.6475 379.681 47.96C379.524 48.2725 379.295 48.5264 378.992 48.7217C378.699 48.9072 378.299 49 377.791 49Z" fill="black"/>
<defs>
<filter id="filter0_d_0_1" x="284.014" y="2.72351" width="141.986" height="73.2592" filterUnits="userSpaceOnUse" color-interpolation-filters="sRGB">
<feFlood flood-opacity="0" result="BackgroundImageFix"/>
<feColorMatrix in="SourceAlpha" type="matrix" values="0 0 0 0 0 0 0 0 0 0 0 0 0 0 0 0 0 0 127 0" result="hardAlpha"/>
<feOffset dx="4" dy="4"/>
<feColorMatrix type="matrix" values="0 0 0 0 0.694118 0 0 0 0 0.721569 0 0 0 0 0.741176 0 0 0 1 0"/>
<feBlend mode="multiply" in2="BackgroundImageFix" result="effect1_dropShadow_0_1"/>
<feBlend mode="normal" in="SourceGraphic" in2="effect1_dropShadow_0_1" result="shape"/>
</filter>
</defs>
</svg>
