<svg width="46" height="46" viewBox="0 0 46 46" fill="none" xmlns="http://www.w3.org/2000/svg">
<path d="M20.5238 37.2332C20.5235 33.1062 14.9443 32.8625 14.9443 28.2981C14.9443 23.7337 18.3241 21.9933 23.3818 21.9933M23.3818 21.9933C28.8522 21.9933 32.8417 24.3435 32.8417 28.2981C32.8417 33.2822 27.2637 32.2149 27.2637 36.8986C27.2637 31.9473 32.4397 33.4026 32.4397 28.2981C32.4397 25.7381 29.2933 21.9933 23.3818 21.9933ZM21.272 43.3275C22.4411 43.3275 25.9269 42.6521 26.9203 42.6521C27.0668 42.6658 26.9543 42.9206 26.5757 43.3275C25.8796 44.0754 22.4954 44.3784 21.272 43.3275Z" stroke="black" stroke-width="4" stroke-linecap="round" stroke-linejoin="round"/>
<path d="M21.8258 14.5612C22.3322 15.3015 24.2922 15.143 24.782 14.5612C25.1866 14.0805 24.782 8.60253 24.5123 8.14573C24.2426 7.68894 22.0351 7.85666 21.8258 8.5271C21.6164 9.19753 21.3195 13.8209 21.8258 14.5612Z" fill="black"/>
<path d="M24.3668 6.37869C25.3838 5.78939 25.5526 4.51665 25.1364 3.56824C24.7201 2.61983 23.3273 1.63463 21.9107 2.40919C20.494 3.18375 20.9927 4.92107 21.7676 5.90608C22.5425 6.8911 23.4484 6.91079 24.3668 6.37869Z" fill="black"/>
<g clip-path="url(#clip0_1_2588)">
<path d="M29.6345 14.9618C29.487 15.856 30.9811 17.1789 31.7248 17.126C32.3392 17.0824 35.7942 12.9126 35.9155 12.3922C36.0368 11.8718 34.3613 10.3742 33.7554 10.695C33.1495 11.0158 29.782 14.0676 29.6345 14.9618Z" fill="black"/>
<path d="M37.0193 11.0361C38.141 11.3641 39.1295 10.5877 39.4829 9.6123C39.8363 8.63693 39.5242 6.92054 37.9935 6.4311C36.4629 5.94167 35.629 7.53525 35.5042 8.79905C35.3794 10.0628 36.0066 10.74 37.0193 11.0361Z" fill="black"/>
</g>
<path d="M14.4506 17.9445C15.3142 18.0973 16.5919 16.5503 16.5409 15.7803C16.4987 15.1441 12.4714 11.5669 11.9688 11.4413C11.4661 11.3157 10.0197 13.0505 10.3296 13.6779C10.6394 14.3052 13.5869 17.7918 14.4506 17.9445Z" fill="black"/>
<path d="M10.6591 10.2984C10.9758 9.13709 10.2259 8.11354 9.28389 7.74767C8.34184 7.38179 6.6841 7.7049 6.21139 9.28973C5.73868 10.8746 7.27781 11.7379 8.49842 11.8671C9.71903 11.9964 10.3731 11.347 10.6591 10.2984Z" fill="black"/>
<defs>
<clipPath id="clip0_1_2588">
<rect width="15.729" height="15.729" fill="white" transform="matrix(0.694711 0.719289 -0.694711 0.719289 35.0729 0)"/>
</clipPath>
</defs>
</svg>
