<svg width="34" height="32" viewBox="0 0 34 32" fill="none" xmlns="http://www.w3.org/2000/svg">
<path d="M28.0722 10.975C29.478 8.90772 29.478 8.90768 29.4779 8.90762L29.4776 8.90743L29.4767 8.9068L29.4733 8.90451L29.4607 8.89593L29.4126 8.86334L29.232 8.74111C29.0766 8.63608 28.8541 8.4862 28.5849 8.30586C28.0471 7.94566 27.3191 7.46167 26.5632 6.96983C25.8112 6.48058 25.0142 5.97216 24.3435 5.56808C24.0103 5.3673 23.6856 5.17857 23.4018 5.02695L23.4003 5.02618C23.2059 4.92229 22.7695 4.68918 22.3243 4.57773C21.9611 4.48679 21.4948 4.45564 21.2351 4.43869C20.8787 4.41541 20.438 4.39614 19.9532 4.38042C18.9797 4.34887 17.7659 4.32973 16.5635 4.32557C15.3626 4.32141 14.1509 4.33212 13.1846 4.36184C12.7047 4.37661 12.2607 4.39677 11.8993 4.42462C11.7205 4.4384 11.5342 4.45612 11.3605 4.48045L11.3546 4.48128C11.2437 4.49679 10.9129 4.54303 10.5745 4.67591C10.1249 4.8525 9.71209 5.16749 9.55466 5.28763C9.5488 5.2921 9.54329 5.2963 9.53815 5.30022C9.28929 5.4897 9.00508 5.72299 8.71449 5.96913C8.12891 6.46514 7.43088 7.08705 6.7717 7.68475C6.10895 8.28569 5.4698 8.8764 4.99739 9.31587C4.76086 9.5359 4.56541 9.7187 4.4288 9.84676L4.27008 9.99575L4.2279 10.0354L4.21682 10.0459L4.21387 10.0487L4.21306 10.0494L4.21282 10.0496C4.21275 10.0497 4.21269 10.0498 5.92773 11.8687L4.21269 10.0498C3.25653 10.9513 3.16159 12.4392 3.99541 13.455L14.9037 26.7432C14.9351 26.7821 14.9678 26.8203 15.0018 26.8577C15.0193 26.8769 15.0371 26.8959 15.0552 26.9146C15.9911 27.8815 17.5265 27.9333 18.5254 27.0317C18.5377 27.0206 18.5499 27.0094 18.562 26.9981C20.5289 25.1597 24.4321 21.5275 24.9533 21.0912C25.7461 20.4274 26.0236 19.3764 25.7406 18.4457C26.6133 17.2714 27.4943 16.0624 28.2319 15.0422C28.777 14.2882 29.2462 13.6339 29.5794 13.1678C29.746 12.9347 29.8786 12.7486 29.9698 12.6205L30.0745 12.4732L30.1018 12.4348L30.1089 12.4249L30.1107 12.4223L30.1112 12.4216L30.1113 12.4214C30.1114 12.4213 30.1114 12.4213 28.0722 10.975ZM28.0722 10.975L29.478 8.90772C30.0334 9.28537 30.4134 9.87057 30.5326 10.5315C30.6517 11.1924 30.4999 11.8735 30.1114 12.4213L28.0722 10.975Z" stroke="black" stroke-width="5" stroke-linecap="round" stroke-linejoin="round"/>
<path d="M28.072 10.8618C28.072 10.8618 23.4762 12.1535 21.2202 12.4507C18.9642 12.7479 12.1756 12.5006 11.4881 12.4507C10.8007 12.4007 5.92747 11.7555 5.92747 11.7555" stroke="black" stroke-width="5" stroke-linecap="round" stroke-linejoin="round"/>
</svg>
