<svg width="32" height="33" viewBox="0 0 32 33" fill="none" xmlns="http://www.w3.org/2000/svg">
<path d="M16.1348 29.8729C19.9477 29.9316 23.0883 29.1767 25.3806 27.171C27.6763 25.1622 28.851 22.1358 29.2624 18.2583C30.1315 10.0679 23.5756 2.82536 16.0962 3.13339C12.3932 3.28589 9.08493 5.13965 6.75188 7.59549C4.43713 10.0321 2.91236 13.2458 3.04643 16.3106C3.17246 19.1916 4.38647 22.5064 6.55706 25.1327C8.75025 27.7864 11.9875 29.8091 16.1348 29.8729Z" stroke="black" stroke-width="3" stroke-miterlimit="10" stroke-linecap="round" stroke-linejoin="round"/>
<path d="M16.4842 23.9281C16.5726 20.4777 17.1761 18.2143 17.1393 17.1821" stroke="black" stroke-width="3" stroke-miterlimit="10" stroke-linecap="round" stroke-linejoin="round"/>
<path d="M20.5156 10.4411C20.7592 8.57558 19.3305 7.17195 17.7432 6.82778C16.156 6.48362 14.129 7.46807 13.1841 9.92491C12.4281 11.8904 15.4401 13.4522 17.4189 13.3662C19.3976 13.2801 20.2956 12.1255 20.5156 10.4411Z" fill="black"/>
</svg>
